<?xml version="1.0" standalone="no"?>
<!DOCTYPE svg PUBLIC "-//W3C//DTD SVG 20010904//EN"
 "http://www.w3.org/TR/2001/REC-SVG-20010904/DTD/svg10.dtd">
<svg version="1.0" xmlns="http://www.w3.org/2000/svg"
 width="141.000000pt" height="103.000000pt" viewBox="0 0 141.000000 103.000000"
 preserveAspectRatio="xMidYMid meet">

<g transform="translate(0.000000,103.000000) scale(0.100000,-0.100000)"
fill="#000000" stroke="none">
<path d="M645 948 c-62 -49 -64 -132 -4 -182 55 -47 142 -27 174 40 19 41 19
58 -1 100 -30 63 -116 84 -169 42z m147 -60 c-5 -20 -6 -20 -18 -4 -7 10 -10
24 -7 32 9 23 32 -3 25 -28z m-142 8 c0 -1 9 -26 20 -55 12 -33 16 -60 11 -69
-6 -10 -10 -6 -14 16 -4 17 -13 48 -22 69 -13 30 -18 35 -25 23 -11 -17 -13
-9 -4 14 3 8 12 12 20 9 8 -3 14 -6 14 -7z m88 -51 c10 -28 15 -59 13 -70 -2
-14 -8 -7 -18 25 -8 25 -18 58 -23 73 -16 51 11 24 28 -28z"/>
<path d="M1132 657 c-35 -36 -41 -67 -17 -87 22 -19 56 -5 99 39 54 55 37 66
-18 12 -29 -29 -50 -42 -60 -38 -25 10 -19 28 21 69 24 24 32 38 22 38 -8 0
-29 -15 -47 -33z"/>
<path d="M1172 647 c-24 -25 -40 -47 -35 -50 6 -4 27 12 49 34 30 31 44 39 62
34 17 -4 23 -2 20 7 -3 7 -15 14 -29 16 -17 2 -36 -9 -67 -41z"/>
<path d="M74 633 c3 -10 8 -30 12 -45 8 -37 21 -35 38 5 11 24 15 27 15 12 2
-30 18 -52 30 -40 13 14 27 93 13 80 -5 -5 -12 -19 -14 -30 -4 -18 -6 -17 -16
8 -15 35 -30 35 -39 0 l-6 -28 -10 28 c-9 29 -32 39 -23 10z"/>
<path d="M230 642 c0 -4 5 -13 12 -20 9 -9 9 -18 0 -37 -12 -27 1 -35 16 -9 8
14 10 14 21 0 21 -25 33 -19 16 7 -13 21 -13 25 1 45 17 25 3 30 -17 6 -11
-14 -13 -14 -21 0 -9 17 -28 22 -28 8z"/>
<path d="M1222 606 c-26 -25 -43 -48 -39 -52 4 -4 24 9 45 29 65 64 103 35 40
-30 -42 -43 -30 -53 15 -13 45 39 54 65 31 91 -25 28 -40 24 -92 -25z"/>
<path d="M200 595 c0 -19 5 -35 10 -35 6 0 10 16 10 35 0 19 -4 35 -10 35 -5
0 -10 -16 -10 -35z"/>
<path d="M1240 575 c-19 -20 -44 -35 -57 -35 -26 0 -31 -15 -7 -24 9 -3 18 -6
20 -6 9 0 94 83 94 91 0 17 -16 9 -50 -26z"/>
<path d="M350 580 c0 -20 7 -20 350 -20 343 0 350 0 350 20 0 20 -7 20 -350
20 -343 0 -350 0 -350 -20z"/>
<path d="M308 493 c-16 -17 -18 -42 -18 -201 l0 -182 170 0 c110 0 170 -4 170
-10 0 -6 -7 -26 -14 -45 l-15 -35 109 0 109 0 -14 39 c-7 22 -11 42 -8 45 4 3
80 6 170 6 l163 0 0 173 c0 161 -1 175 -20 192 -20 18 -20 17 -20 -153 l0
-172 -380 0 -380 0 -2 181 c-3 173 -4 180 -20 162z"/>
<path d="M417 443 c-4 -3 -7 -15 -7 -25 0 -17 16 -18 301 -18 l300 0 -3 23 -3
22 -291 3 c-160 1 -293 -1 -297 -5z"/>
</g>
</svg>
